{
  "accessors": {
    "accessor_index_0": {
      "bufferView": "bufferView_1",
      "byteOffset": 0,
      "byteStride": 0,
      "componentType": 5123,
      "count": 18,
      "type": "SCALAR",
      "min": [
        0
      ],
      "max": [
        15
      ]
    },
    "accessor_index_1": {
      "bufferView": "bufferView_1",
      "byteOffset": 36,
      "byteStride": 0,
      "componentType": 5123,
      "count": 6,
      "type": "SCALAR",
      "min": [
        4
      ],
      "max": [
        7
      ]
    },
    "accessor_index_2": {
      "bufferView": "bufferView_1",
      "byteOffset": 48,
      "byteStride": 0,
      "componentType": 5123,
      "count": 6,
      "type": "SCALAR",
      "min": [
        16
      ],
      "max": [
        19
      ]
    },
    "accessor_index_3": {
      "bufferView": "bufferView_1",
      "byteOffset": 60,
      "byteStride": 0,
      "componentType": 5123,
      "count": 2280,
      "type": "SCALAR",
      "min": [
        20
      ],
      "max": [
        458
      ]
    },
    "accessor_index_4": {
      "bufferView": "bufferView_1",
      "byteOffset": 4620,
      "byteStride": 0,
      "componentType": 5123,
      "count": 36,
      "type": "SCALAR",
      "min": [
        459
      ],
      "max": [
        482
      ]
    },
    "accessor_position": {
      "bufferView": "bufferView_0",
      "byteOffset": 0,
      "byteStride": 0,
      "componentType": 5123,
      "count": 426,
      "min": [
        0,
        0,
        0
      ],
      "max": [
        65535,
        65535,
        65535
      ],
      "type": "VEC3",
      "extensions": {
        "WEB3D_quantized_attributes": {
          "decodedMin": [
            -2.5,
            0,
            -2.5
          ],
          "decodedMax": [
            2.5,
            5,
            2.5
          ],
          "decodeMatrix": [
            0.00007629510948348211,
            0,
            0,
            0,
            0,
            0.00007629510948348211,
            0,
            0,
            0,
            0,
            0.00007629510948348211,
            0,
            -2.5,
            0,
            -2.5,
            1
          ]
        }
      }
    },
    "accessor_normal": {
      "bufferView": "bufferView_0",
      "byteOffset": 2556,
      "byteStride": 0,
      "componentType": 5121,
      "count": 426,
      "type": "VEC2",
      "min": [
        0,
        0
      ],
      "max": [
        255,
        255
      ]
    },
    "accessor_mesh_cornell_4_AO": {
      "bufferView": "bufferView_2",
      "byteOffset": 0,
      "componentType": 5126,
      "count": 426,
      "type": "SCALAR",
      "byteStride": 0
    }
  },
  "asset": {
    "generator": "OBJ2GLTF",
    "premultipliedAlpha": true,
    "profile": {
      "api": "WebGL",
      "version": "1.0"
    },
    "version": "1.0"
  },
  "buffers": {
    "buffer_0": {
      "type": "arraybuffer",
      "byteLength": 8100,
      "uri": "data:application/octet-stream;base64,"
    },
    "aoBuffer": {
      "type": "arraybuffer",
      "byteLength": 1704,
      "uri": "data:application/octet-stream;base64,"
    }
  },
  "bufferViews": {
    "bufferView_0": {
      "buffer": "buffer_0",
      "byteLength": 3408,
      "byteOffset": 0,
      "target": 34962
    },
    "bufferView_1": {
      "buffer": "buffer_0",
      "byteLength": 4692,
      "byteOffset": 3408,
      "target": 34963
    },
    "bufferView_2": {
      "buffer": "aoBuffer",
      "byteLength": 1704,
      "byteOffset": 0,
      "target": 34962
    }
  },
  "images": {},
  "materials": {
    "material_blinn1SG": {
      "name": "blinn1SG",
      "extensions": {},
      "values": {
        "ambient": [
          0,
          0,
          0,
          1
        ],
        "diffuse": [
          0.66,
          0.05,
          0,
          1
        ],
        "emission": [
          0,
          0,
          0,
          1
        ],
        "specular": [
          0.5,
          0.5,
          0.5,
          1
        ],
        "shininess": 0,
        "transparency": 1
      },
      "technique": "technique0"
    },
    "material_blinn2SG": {
      "name": "blinn2SG",
      "extensions": {},
      "values": {
        "ambient": [
          0,
          0,
          0,
          1
        ],
        "diffuse": [
          0.03,
          0.5,
          0,
          1
        ],
        "emission": [
          0,
          0,
          0,
          1
        ],
        "specular": [
          0.5,
          0.5,
          0.5,
          1
        ],
        "shininess": 0,
        "transparency": 1
      },
      "technique": "technique0"
    },
    "material_blinn3SG": {
      "name": "blinn3SG",
      "extensions": {},
      "values": {
        "ambient": [
          0,
          0,
          0,
          1
        ],
        "diffuse": [
          0.5,
          0.5,
          0.5,
          1
        ],
        "emission": [
          0,
          0,
          0,
          1
        ],
        "specular": [
          0.5,
          0.5,
          0.5,
          1
        ],
        "shininess": 0,
        "transparency": 1
      },
      "technique": "technique0"
    },
    "material_initialShadingGroup": {
      "name": "initialShadingGroup",
      "extensions": {},
      "values": {
        "ambient": [
          0,
          0,
          0,
          1
        ],
        "diffuse": [
          0.5,
          0.5,
          0.5,
          1
        ],
        "emission": [
          0,
          0,
          0,
          1
        ],
        "specular": [
          0,
          0,
          0,
          1
        ],
        "shininess": 0,
        "transparency": 1
      },
      "technique": "technique0"
    },
    "material_lambert2SG": {
      "name": "lambert2SG",
      "extensions": {},
      "values": {
        "ambient": [
          0,
          0,
          0,
          1
        ],
        "diffuse": [
          1,
          0.86,
          0,
          1
        ],
        "emission": [
          0,
          0,
          0,
          1
        ],
        "specular": [
          0,
          0,
          0,
          1
        ],
        "shininess": 0,
        "transparency": 1
      },
      "technique": "technique0"
    }
  },
  "meshes": {
    "mesh_cornell": {
      "name": "cornell",
      "primitives": [
        {
          "attributes": {
            "POSITION": "accessor_position",
            "NORMAL": "accessor_normal",
            "_OCCLUSION": "accessor_mesh_cornell_4_AO"
          },
          "indices": "accessor_index_0",
          "material": "material_initialShadingGroup",
          "mode": 4
        },
        {
          "attributes": {
            "POSITION": "accessor_position",
            "NORMAL": "accessor_normal",
            "_OCCLUSION": "accessor_mesh_cornell_4_AO"
          },
          "indices": "accessor_index_1",
          "material": "material_blinn2SG",
          "mode": 4
        },
        {
          "attributes": {
            "POSITION": "accessor_position",
            "NORMAL": "accessor_normal",
            "_OCCLUSION": "accessor_mesh_cornell_4_AO"
          },
          "indices": "accessor_index_2",
          "material": "material_blinn1SG",
          "mode": 4
        },
        {
          "attributes": {
            "POSITION": "accessor_position",
            "NORMAL": "accessor_normal",
            "_OCCLUSION": "accessor_mesh_cornell_4_AO"
          },
          "indices": "accessor_index_3",
          "material": "material_lambert2SG",
          "mode": 4
        },
        {
          "attributes": {
            "POSITION": "accessor_position",
            "NORMAL": "accessor_normal",
            "_OCCLUSION": "accessor_mesh_cornell_4_AO"
          },
          "indices": "accessor_index_4",
          "material": "material_blinn3SG",
          "mode": 4
        }
      ]
    }
  },
  "nodes": {
    "rootNode": {
      "children": [],
      "meshes": [
        "mesh_cornell"
      ],
      "matrix": [
        1,
        0,
        0,
        0,
        0,
        1,
        0,
        0,
        0,
        0,
        1,
        0,
        0,
        0,
        0,
        1
      ]
    }
  },
  "samplers": {},
  "scene": "scene_cornell",
  "scenes": {
    "scene_cornell": {
      "nodes": [
        "rootNode"
      ]
    }
  },
  "textures": {},
  "extensionsUsed": [
    "WEB3D_quantized_attributes"
  ],
  "animations": {},
  "cameras": {},
  "techniques": {
    "technique0": {
      "attributes": {
        "a_position": "position",
        "a_normal": "normal",
        "a_ambientOcclusion": "vertex_ao"
      },
      "parameters": {
        "modelViewMatrix": {
          "semantic": "MODELVIEW",
          "type": 35676
        },
        "projectionMatrix": {
          "semantic": "PROJECTION",
          "type": 35676
        },
        "normalMatrix": {
          "semantic": "MODELVIEWINVERSETRANSPOSE",
          "type": 35675
        },
        "ambient": {
          "type": 35666
        },
        "diffuse": {
          "type": 35666
        },
        "emission": {
          "type": 35666
        },
        "specular": {
          "type": 35666
        },
        "shininess": {
          "type": 5126
        },
        "transparency": {
          "type": 5126
        },
        "position": {
          "semantic": "POSITION",
          "type": 35665
        },
        "normal": {
          "semantic": "NORMAL",
          "type": 35667
        },
        "vertex_ao": {
          "semantic": "_OCCLUSION",
          "type": 5126
        }
      },
      "program": "program0",
      "states": {
        "enable": [
          2884,
          2929
        ]
      },
      "uniforms": {
        "u_modelViewMatrix": "modelViewMatrix",
        "u_projectionMatrix": "projectionMatrix",
        "u_normalMatrix": "normalMatrix",
        "u_ambient": "ambient",
        "u_diffuse": "diffuse",
        "u_emission": "emission",
        "u_specular": "specular",
        "u_shininess": "shininess",
        "u_transparency": "transparency"
      }
    }
  },
  "programs": {
    "program0": {
      "attributes": [
        "a_position",
        "a_normal",
        "a_ambientOcclusion"
      ],
      "fragmentShader": "fragmentShader0",
      "vertexShader": "vertexShader0"
    }
  },
  "shaders": {
    "vertexShader0": {
      "type": 35633,
      "uri": "data:text/plain;base64,"
    },
    "fragmentShader0": {
      "type": 35632,
      "uri": "data:text/plain;base64,"
    }
  },
  "skins": {},
  "extensions": {}
}
